<svg width="163" height="192" viewBox="0 0 163 192" fill="none" xmlns="http://www.w3.org/2000/svg">
<g id="Group 6">
<g id="Rectangle 6" filter="url(#filter0_d_745_554)">
<rect x="137.986" y="162.161" width="111.988" height="157.983" rx="10" transform="rotate(171.939 137.986 162.161)" fill="url(#paint0_linear_745_554)"/>
</g>
<g id="Rectangle 5" filter="url(#filter1_d_745_554)">
<rect x="123.969" y="176.145" width="111.988" height="157.983" rx="10" transform="rotate(-175.941 123.969 176.145)" fill="url(#paint1_linear_745_554)"/>
</g>
<g id="Rectangle 4" filter="url(#filter2_d_745_554)">
<rect x="50.3751" y="0.899719" width="111.988" height="157.983" rx="10" transform="rotate(18.2435 50.3751 0.899719)" fill="url(#paint2_linear_745_554)"/>
</g>
<path id="innerContent" fill-rule="evenodd" clip-rule="evenodd" d="M77.1922 50.2543L72.5336 46.473L71.6283 45.7382L65.4927 40.758L73.267 39.3405L105.077 33.5408L111.05 32.4517L111.212 38.521L112.079 70.8435L112.291 78.7431L106.155 73.7629L105.25 73.0281L100.591 69.2468L96.8099 73.9054L93.007 78.5906C93.5378 79.1428 94.0439 79.7115 94.5252 80.2951C103.463 91.1326 103.844 107.114 94.6495 118.442L84.1864 131.332L80.4051 135.991L85.0636 139.772L85.9689 140.507L92.1046 145.487L84.3303 146.905L52.5206 152.704L46.5476 153.793L46.3849 147.724L45.5184 115.402L45.3066 107.502L51.4423 112.482L52.3476 113.217L57.0061 116.998L60.7874 112.34L64.5902 107.655C64.0595 107.102 63.5533 106.534 63.072 105.95C54.1341 95.1125 53.7532 79.1313 62.9477 67.8035L73.4109 54.9128L77.1922 50.2543ZM80.9734 45.5957L79.4026 44.3208L105.239 39.61L105.943 65.8633L104.372 64.5883L99.7138 60.807L95.9326 65.4656L66.9506 101.172C60.5353 92.5289 60.5107 80.3267 67.6063 71.5848L81.8507 54.0355L85.632 49.377L80.9734 45.5957ZM76.6238 140.649L78.1946 141.924L52.3579 146.635L51.6541 120.382L53.2248 121.657L57.8834 125.438L61.6647 120.78L90.6467 85.0735C97.0619 93.7163 97.0866 105.918 89.991 114.66L75.7466 132.21L71.9653 136.868L76.6238 140.649Z" fill="#E5E5E5"/>
</g>
<defs>
<filter id="filter0_d_745_554" x="6.25223" y="7.04156" width="138.431" height="177.522" filterUnits="userSpaceOnUse" color-interpolation-filters="sRGB">
<feFlood flood-opacity="0" result="BackgroundImageFix"/>
<feColorMatrix in="SourceAlpha" type="matrix" values="0 0 0 0 0 0 0 0 0 0 0 0 0 0 0 0 0 0 127 0" result="hardAlpha"/>
<feOffset dx="4" dy="4"/>
<feGaussianBlur stdDeviation="2"/>
<feColorMatrix type="matrix" values="0 0 0 0 0 0 0 0 0 0 0 0 0 0 0 0 0 0 0.1 0"/>
<feBlend mode="normal" in2="BackgroundImageFix" result="effect1_dropShadow_745_554"/>
<feBlend mode="normal" in="SourceGraphic" in2="effect1_dropShadow_745_554" result="shape"/>
</filter>
<filter id="filter1_d_745_554" x="12.9447" y="11.3131" width="129.526" height="172.149" filterUnits="userSpaceOnUse" color-interpolation-filters="sRGB">
<feFlood flood-opacity="0" result="BackgroundImageFix"/>
<feColorMatrix in="SourceAlpha" type="matrix" values="0 0 0 0 0 0 0 0 0 0 0 0 0 0 0 0 0 0 127 0" result="hardAlpha"/>
<feOffset dx="4" dy="4"/>
<feGaussianBlur stdDeviation="2"/>
<feColorMatrix type="matrix" values="0 0 0 0 0 0 0 0 0 0 0 0 0 0 0 0 0 0 0.1 0"/>
<feBlend mode="normal" in2="BackgroundImageFix" result="effect1_dropShadow_745_554"/>
<feBlend mode="normal" in="SourceGraphic" in2="effect1_dropShadow_745_554" result="shape"/>
</filter>
<filter id="filter2_d_745_554" x="3.54274" y="3.5249" width="158.566" height="187.85" filterUnits="userSpaceOnUse" color-interpolation-filters="sRGB">
<feFlood flood-opacity="0" result="BackgroundImageFix"/>
<feColorMatrix in="SourceAlpha" type="matrix" values="0 0 0 0 0 0 0 0 0 0 0 0 0 0 0 0 0 0 127 0" result="hardAlpha"/>
<feOffset dx="4" dy="4"/>
<feGaussianBlur stdDeviation="2"/>
<feColorMatrix type="matrix" values="0 0 0 0 0 0 0 0 0 0 0 0 0 0 0 0 0 0 0.1 0"/>
<feBlend mode="normal" in2="BackgroundImageFix" result="effect1_dropShadow_745_554"/>
<feBlend mode="normal" in="SourceGraphic" in2="effect1_dropShadow_745_554" result="shape"/>
</filter>
<linearGradient id="paint0_linear_745_554" x1="193.98" y1="162.161" x2="193.98" y2="320.144" gradientUnits="userSpaceOnUse">
<stop stop-color="#F4971A"/>
<stop offset="1" stop-color="#F261B0"/>
</linearGradient>
<linearGradient id="paint1_linear_745_554" x1="179.963" y1="176.145" x2="179.963" y2="334.128" gradientUnits="userSpaceOnUse">
<stop stop-color="#428BCA"/>
<stop offset="1" stop-color="#5542CA"/>
</linearGradient>
<linearGradient id="paint2_linear_745_554" x1="106.369" y1="0.899719" x2="106.369" y2="158.883" gradientUnits="userSpaceOnUse">
<stop stop-color="#39B53F"/>
<stop offset="1" stop-color="#1A8D1F"/>
</linearGradient>
</defs>
</svg>
