<svg width="168" height="197" viewBox="0 0 168 197" fill="none" xmlns="http://www.w3.org/2000/svg">
<g filter="url(#filter0_d_745_567)">
<rect x="139.068" y="163.261" width="111.988" height="157.983" rx="10" transform="rotate(171.939 139.068 163.261)" fill="url(#paint0_linear_745_567)"/>
</g>
<g filter="url(#filter1_d_745_567)">
<rect x="125.052" y="177.245" width="111.988" height="157.983" rx="10" transform="rotate(-175.941 125.052 177.245)" fill="url(#paint1_linear_745_567)"/>
</g>
<g filter="url(#filter2_d_745_567)">
<rect x="51.4576" y="2" width="111.988" height="157.983" rx="10" transform="rotate(18.2435 51.4576 2)" fill="url(#paint2_linear_745_567)"/>
</g>
<path fill-rule="evenodd" clip-rule="evenodd" d="M85.9703 60.3624C79.1966 57.9823 71.776 61.5441 69.3959 68.3179L63.2025 85.9446L54.2269 82.7908C45.89 79.8616 36.7569 84.2453 33.8276 92.5822L22.3039 125.379C19.3746 133.716 23.7584 142.849 32.0953 145.779L49.3926 151.856C57.7295 154.786 66.8625 150.402 69.7918 142.065L76.9797 121.608L83.1249 123.767C89.8987 126.147 97.3193 122.585 99.6993 115.812L111.223 83.0144C113.603 76.2407 110.041 68.8201 103.268 66.44L85.9703 60.3624ZM78.9686 115.947L85.1139 118.106C88.7613 119.388 92.757 117.47 94.0386 113.823L105.562 81.0254C106.844 77.378 104.926 73.3823 101.279 72.1007L83.9813 66.0231C80.3339 64.7416 76.3382 66.6594 75.0566 70.3068L68.8633 87.9335L71.5242 88.8685C79.8611 91.7978 84.2448 100.931 81.3155 109.268L78.9686 115.947ZM39.4884 94.5712C41.3192 89.3606 47.0273 86.6208 52.2379 88.4516L69.5352 94.5292C74.7458 96.36 77.4856 102.068 75.6548 107.279L64.1311 140.076C62.3003 145.286 56.5921 148.026 51.3815 146.196L34.0842 140.118C28.8737 138.287 26.1339 132.579 27.9647 127.368L39.4884 94.5712Z" fill="#F2F2F2"/>
<path d="M94.8159 67.8885L102.579 45.7952C104.41 40.5847 110.118 37.8448 115.328 39.6756L132.594 45.742C137.804 47.5728 140.544 53.281 138.713 58.4916L127.164 91.3605C125.333 96.5711 119.625 99.3109 114.415 97.4801L104.831 94.1128" stroke="#F2F2F2" stroke-width="6"/>
<defs>
<filter id="filter0_d_745_567" x="3.33472" y="4.14185" width="146.431" height="185.522" filterUnits="userSpaceOnUse" color-interpolation-filters="sRGB">
<feFlood flood-opacity="0" result="BackgroundImageFix"/>
<feColorMatrix in="SourceAlpha" type="matrix" values="0 0 0 0 0 0 0 0 0 0 0 0 0 0 0 0 0 0 127 0" result="hardAlpha"/>
<feMorphology radius="4" operator="dilate" in="SourceAlpha" result="effect1_dropShadow_745_567"/>
<feOffset dx="4" dy="4"/>
<feGaussianBlur stdDeviation="2"/>
<feColorMatrix type="matrix" values="0 0 0 0 0 0 0 0 0 0 0 0 0 0 0 0 0 0 0.1 0"/>
<feBlend mode="normal" in2="BackgroundImageFix" result="effect1_dropShadow_745_567"/>
<feBlend mode="normal" in="SourceGraphic" in2="effect1_dropShadow_745_567" result="shape"/>
</filter>
<filter id="filter1_d_745_567" x="10.0272" y="8.41339" width="137.526" height="180.149" filterUnits="userSpaceOnUse" color-interpolation-filters="sRGB">
<feFlood flood-opacity="0" result="BackgroundImageFix"/>
<feColorMatrix in="SourceAlpha" type="matrix" values="0 0 0 0 0 0 0 0 0 0 0 0 0 0 0 0 0 0 127 0" result="hardAlpha"/>
<feMorphology radius="4" operator="dilate" in="SourceAlpha" result="effect1_dropShadow_745_567"/>
<feOffset dx="4" dy="4"/>
<feGaussianBlur stdDeviation="2"/>
<feColorMatrix type="matrix" values="0 0 0 0 0 0 0 0 0 0 0 0 0 0 0 0 0 0 0.1 0"/>
<feBlend mode="normal" in2="BackgroundImageFix" result="effect1_dropShadow_745_567"/>
<feBlend mode="normal" in="SourceGraphic" in2="effect1_dropShadow_745_567" result="shape"/>
</filter>
<filter id="filter2_d_745_567" x="0.625244" y="0.625183" width="166.566" height="195.85" filterUnits="userSpaceOnUse" color-interpolation-filters="sRGB">
<feFlood flood-opacity="0" result="BackgroundImageFix"/>
<feColorMatrix in="SourceAlpha" type="matrix" values="0 0 0 0 0 0 0 0 0 0 0 0 0 0 0 0 0 0 127 0" result="hardAlpha"/>
<feMorphology radius="4" operator="dilate" in="SourceAlpha" result="effect1_dropShadow_745_567"/>
<feOffset dx="4" dy="4"/>
<feGaussianBlur stdDeviation="2"/>
<feColorMatrix type="matrix" values="0 0 0 0 0 0 0 0 0 0 0 0 0 0 0 0 0 0 0.1 0"/>
<feBlend mode="normal" in2="BackgroundImageFix" result="effect1_dropShadow_745_567"/>
<feBlend mode="normal" in="SourceGraphic" in2="effect1_dropShadow_745_567" result="shape"/>
</filter>
<linearGradient id="paint0_linear_745_567" x1="195.062" y1="163.261" x2="195.062" y2="321.244" gradientUnits="userSpaceOnUse">
<stop stop-color="#428BCA"/>
<stop offset="1" stop-color="#5542CA"/>
</linearGradient>
<linearGradient id="paint1_linear_745_567" x1="181.046" y1="177.245" x2="181.046" y2="335.228" gradientUnits="userSpaceOnUse">
<stop stop-color="#39B53F"/>
<stop offset="1" stop-color="#1A8D1F"/>
</linearGradient>
<linearGradient id="paint2_linear_745_567" x1="107.451" y1="2" x2="107.451" y2="159.983" gradientUnits="userSpaceOnUse">
<stop stop-color="#F4971A"/>
<stop offset="1" stop-color="#F261B0"/>
</linearGradient>
</defs>
</svg>
