<svg width="417" height="300" viewBox="0 0 417 300" fill="none" xmlns="http://www.w3.org/2000/svg">
<rect width="417" height="300" fill="white"/>
<g filter="url(#filter0_d_339_6)">
<rect x="27" y="98.5165" width="327.156" height="190" rx="20" transform="rotate(-14.6528 27 98.5165)" fill="#39B53F"/>
</g>
<g filter="url(#filter1_d_339_6)">
<rect x="40" y="54" width="327.156" height="190" rx="20" fill="url(#paint0_linear_339_6)"/>
</g>
<g filter="url(#filter2_d_339_6)">
<rect x="75" y="9" width="327.156" height="190" rx="20" transform="rotate(14.592 75 9)" fill="url(#paint1_linear_339_6)"/>
</g>
<path opacity="0.5" d="M213.735 76.2881C219.155 69.1882 230.456 72.2163 231.601 81.0752L236.674 120.349C237.193 124.369 240.088 127.678 244.004 128.727L285.259 139.781C295.155 142.433 295.136 156.481 285.234 159.107L251.602 168.024C246.75 169.31 243.604 173.993 244.247 178.971L248.426 211.323C249.647 220.773 238.212 226.414 231.456 219.693L198.753 187.162C196.234 184.655 192.573 183.675 189.138 184.585L144.551 196.407C135.34 198.849 128.257 188.247 134.04 180.673L153.835 154.745C156.881 150.756 156.497 145.127 152.939 141.587L128.272 117.049C121.008 109.823 128.016 97.6483 137.912 100.3L179.168 111.354C183.083 112.403 187.245 110.985 189.704 107.763L213.735 76.2881Z" fill="#F5E44B"/>
<defs>
<filter id="filter0_d_339_6" x="27.4038" y="20.1627" width="363.77" height="265.77" filterUnits="userSpaceOnUse" color-interpolation-filters="sRGB">
<feFlood flood-opacity="0" result="BackgroundImageFix"/>
<feColorMatrix in="SourceAlpha" type="matrix" values="0 0 0 0 0 0 0 0 0 0 0 0 0 0 0 0 0 0 127 0" result="hardAlpha"/>
<feOffset dy="4"/>
<feGaussianBlur stdDeviation="2"/>
<feColorMatrix type="matrix" values="0 0 0 0 0 0 0 0 0 0 0 0 0 0 0 0 0 0 0.1 0"/>
<feBlend mode="normal" in2="BackgroundImageFix" result="effect1_dropShadow_339_6"/>
<feBlend mode="normal" in="SourceGraphic" in2="effect1_dropShadow_339_6" result="shape"/>
</filter>
<filter id="filter1_d_339_6" x="36" y="54" width="335.156" height="198" filterUnits="userSpaceOnUse" color-interpolation-filters="sRGB">
<feFlood flood-opacity="0" result="BackgroundImageFix"/>
<feColorMatrix in="SourceAlpha" type="matrix" values="0 0 0 0 0 0 0 0 0 0 0 0 0 0 0 0 0 0 127 0" result="hardAlpha"/>
<feOffset dy="4"/>
<feGaussianBlur stdDeviation="2"/>
<feColorMatrix type="matrix" values="0 0 0 0 0 0 0 0 0 0 0 0 0 0 0 0 0 0 0.1 0"/>
<feBlend mode="normal" in2="BackgroundImageFix" result="effect1_dropShadow_339_6"/>
<feBlend mode="normal" in="SourceGraphic" in2="effect1_dropShadow_339_6" result="shape"/>
</filter>
<filter id="filter2_d_339_6" x="27.5212" y="13.3887" width="363.693" height="265.516" filterUnits="userSpaceOnUse" color-interpolation-filters="sRGB">
<feFlood flood-opacity="0" result="BackgroundImageFix"/>
<feColorMatrix in="SourceAlpha" type="matrix" values="0 0 0 0 0 0 0 0 0 0 0 0 0 0 0 0 0 0 127 0" result="hardAlpha"/>
<feOffset dy="4"/>
<feGaussianBlur stdDeviation="2"/>
<feColorMatrix type="matrix" values="0 0 0 0 0 0 0 0 0 0 0 0 0 0 0 0 0 0 0.1 0"/>
<feBlend mode="normal" in2="BackgroundImageFix" result="effect1_dropShadow_339_6"/>
<feBlend mode="normal" in="SourceGraphic" in2="effect1_dropShadow_339_6" result="shape"/>
</filter>
<linearGradient id="paint0_linear_339_6" x1="203.578" y1="54" x2="203.578" y2="244" gradientUnits="userSpaceOnUse">
<stop stop-color="#428BCA"/>
<stop offset="1" stop-color="#5542CA"/>
</linearGradient>
<linearGradient id="paint1_linear_339_6" x1="238.578" y1="9" x2="238.578" y2="199" gradientUnits="userSpaceOnUse">
<stop stop-color="#F4971A"/>
<stop offset="1" stop-color="#F261B0"/>
</linearGradient>
</defs>
</svg>
